<svg width="32" height="32" viewBox="0 0 32 32" fill="none" xmlns="http://www.w3.org/2000/svg">
<path d="M0 16C0 7.16344 7.16344 0 16 0C24.8366 0 32 7.16344 32 16C32 24.8366 24.8366 32 16 32C7.16344 32 0 24.8366 0 16Z" fill="#E6EEFF"/>
<path d="M8.00049 19.9791V22.3877C7.99959 22.6113 8.04548 22.8327 8.13524 23.0375C8.22499 23.2424 8.35664 23.4263 8.52173 23.5775C8.68683 23.7286 8.88174 23.8437 9.09398 23.9154C9.30622 23.987 9.53111 24.0136 9.75425 23.9935C12.2298 23.725 14.6077 22.8808 16.6969 21.5286C18.6406 20.2959 20.2886 18.6512 21.5237 16.7113C22.8833 14.6168 23.7294 12.2321 23.9935 9.75036C24.0136 9.52834 23.9871 9.30457 23.9158 9.0933C23.8445 8.88203 23.7299 8.6879 23.5794 8.52325C23.4288 8.35861 23.2455 8.22706 23.0411 8.13699C22.8368 8.04691 22.6159 8.00029 22.3926 8.00008H19.9791C19.5887 7.99624 19.2102 8.13422 18.9142 8.3883C18.6182 8.64237 18.4248 8.99521 18.3702 9.38103C18.2683 10.1519 18.0794 10.9087 17.8071 11.6371C17.6988 11.9245 17.6754 12.2368 17.7396 12.5371C17.8037 12.8373 17.9528 13.1129 18.1691 13.3312L19.1908 14.3509C18.0455 16.3609 16.3779 18.0252 14.3639 19.1682L13.3422 18.1485C13.1235 17.9326 12.8473 17.7839 12.5465 17.7198C12.2456 17.6558 11.9327 17.6792 11.6448 17.7872C10.9149 18.059 10.1565 18.2476 9.38419 18.3492C8.99341 18.4042 8.63651 18.6007 8.38139 18.9012C8.12626 19.2017 7.99071 19.5853 8.00049 19.9791Z" fill="#0055FF"/>
</svg>
